<?xml version="1.0" standalone="no"?>
<!DOCTYPE svg PUBLIC "-//W3C//DTD SVG 20010904//EN"
 "http://www.w3.org/TR/2001/REC-SVG-20010904/DTD/svg10.dtd">
<svg version="1.0" xmlns="http://www.w3.org/2000/svg"
 width="700.000000pt" height="700.000000pt" viewBox="0 0 700.000000 700.000000"
 preserveAspectRatio="xMidYMid meet">
<metadata>
Created by potrace 1.14, written by Peter Selinger 2001-2017
</metadata>
<g transform="translate(0.000000,700.000000) scale(0.100000,-0.100000)"
fill="#000000" stroke="none">
<path d="M6575 6826 c-176 -56 -461 -302 -1135 -982 -794 -801 -1879 -1978
-3338 -3620 -241 -271 -438 -491 -439 -490 -2 2 439 911 978 2022 747 1535
983 2030 986 2065 10 91 -48 159 -141 167 -48 4 -63 -2 -261 -101 -754 -375
-1453 -832 -1939 -1267 -402 -360 -667 -708 -806 -1060 -390 -983 -422 -2055
-92 -3010 116 -337 129 -360 201 -380 74 -20 445 -7 731 25 1484 171 2728 854
3535 1940 194 261 486 745 594 983 61 136 74 181 78 272 3 74 1 91 -20 130
-29 56 -100 106 -164 116 -26 4 -79 2 -117 -4 -39 -6 -72 -9 -74 -8 -6 7 60
161 129 298 174 348 457 817 974 1613 414 638 585 960 585 1103 0 41 -26 112
-53 141 -50 54 -132 72 -212 47z m-261 -603 c-52 -92 -159 -260 -374 -593
-638 -986 -980 -1581 -1081 -1880 -61 -179 -50 -321 30 -393 59 -53 116 -71
212 -64 78 5 80 5 73 -16 -23 -80 -307 -569 -462 -797 -674 -992 -1696 -1645
-2972 -1899 -241 -48 -661 -103 -676 -88 -3 2 13 41 35 85 43 86 125 182 1080
1257 1607 1809 2795 3098 3601 3905 256 256 543 530 556 530 3 0 -6 -21 -22
-47z m-4318 -3073 c-1185 -2439 -1122 -2315 -1265 -2480 l-39 -44 -32 104
c-124 401 -180 772 -180 1194 0 394 47 730 154 1106 149 523 298 787 646 1144
281 288 583 531 1009 811 296 195 822 503 829 486 1 -3 -504 -1048 -1122
-2321z"/>
</g>
</svg>
