<svg xmlns="http://www.w3.org/2000/svg" width="933.333" height="933.333" version="1.0" viewBox="0 0 700 700"><path d="M657.5 17.4C639.9 23 611.4 47.6 544 115.6c-79.4 80.1-187.9 197.8-333.8 362-24.1 27.1-43.8 49.1-43.9 49-.2-.2 43.9-91.1 97.8-202.2 74.7-153.5 98.3-203 98.6-206.5 1-9.1-4.8-15.9-14.1-16.7-4.8-.4-6.3.2-26.1 10.1-75.4 37.5-145.3 83.2-193.9 126.7-40.2 36-66.7 70.8-80.6 106-39 98.3-42.2 205.5-9.2 301 11.6 33.7 12.9 36 20.1 38 7.4 2 44.5.7 73.1-2.5 148.4-17.1 272.8-85.4 353.5-194 19.4-26.1 48.6-74.5 59.4-98.3 6.1-13.6 7.4-18.1 7.8-27.2.3-7.4.1-9.1-2-13-2.9-5.6-10-10.6-16.4-11.6-2.6-.4-7.9-.2-11.7.4-3.9.6-7.2.9-7.4.8-.6-.7 6-16.1 12.9-29.8 17.4-34.8 45.7-81.7 97.4-161.3 41.4-63.8 58.5-96 58.5-110.3 0-4.1-2.6-11.2-5.3-14.1-5-5.4-13.2-7.2-21.2-4.7zm-26.1 60.3c-5.2 9.2-15.9 26-37.4 59.3-63.8 98.6-98 158.1-108.1 188-6.1 17.9-5 32.1 3 39.3 5.9 5.3 11.6 7.1 21.2 6.4 7.8-.5 8-.5 7.3 1.6-2.3 8-30.7 56.9-46.2 79.7-67.4 99.2-169.6 164.5-297.2 189.9-24.1 4.8-66.1 10.3-67.6 8.8-.3-.2 1.3-4.1 3.5-8.5 4.3-8.6 12.5-18.2 108-125.7C378.6 335.6 497.4 206.7 578 126c25.6-25.6 54.3-53 55.6-53 .3 0-.6 2.1-2.2 4.7zM199.6 385C81.1 628.9 87.4 616.5 73.1 633l-3.9 4.4L66 627c-12.4-40.1-18-77.2-18-119.4 0-39.4 4.7-73 15.4-110.6 14.9-52.3 29.8-78.7 64.6-114.4 28.1-28.8 58.3-53.1 100.9-81.1 29.6-19.5 82.2-50.3 82.9-48.6.1.3-50.4 104.8-112.2 232.1z"/></svg>