<svg width="32" height="32" viewBox="0 0 32 32" fill="none" xmlns="http://www.w3.org/2000/svg">
<path d="M17.3601 2.66699C19.7601 2.66699 20.2671 2.69399 21.4931 2.74699C22.9061 2.81399 23.8801 3.03999 24.7201 3.37399C25.6001 3.70699 26.3471 4.17399 27.0801 4.90699C27.8271 5.63999 28.2801 6.38699 28.6271 7.26699C28.9601 8.10699 29.1741 9.07999 29.2401 10.507C29.3071 11.774 29.3201 12.267 29.3201 14.934V17.067C29.3201 19.734 29.3071 20.227 29.2401 21.494C29.2171 22.659 28.9941 23.764 28.6041 24.788L28.6261 24.721C28.2791 25.601 27.8261 26.348 27.0931 27.081C26.3461 27.828 25.6001 28.281 24.7201 28.628C23.8801 28.961 22.9071 29.175 21.4931 29.241C20.2261 29.308 19.7201 29.321 17.0531 29.321H14.9331C12.2661 29.321 11.7731 29.308 10.4931 29.241C9.32809 29.218 8.22309 28.995 7.19909 28.605L7.26609 28.627C6.34309 28.274 5.55609 27.753 4.90709 27.094L4.90609 27.093C4.24009 26.441 3.71409 25.649 3.37409 24.764L3.35909 24.719C2.99209 23.763 2.76909 22.657 2.74609 21.502V21.492C2.69309 20.45 2.66309 19.229 2.66309 18.002C2.66309 17.776 2.66409 17.55 2.66609 17.325V17.359V14.626C2.66609 12.226 2.69309 11.719 2.74609 10.493C2.81309 9.07999 3.03909 8.10599 3.35909 7.26599C3.70609 6.38599 4.15909 5.63899 4.90609 4.90599C5.55109 4.23899 6.34009 3.71599 7.22309 3.38699L7.26609 3.37299C8.22109 3.00199 9.32609 2.77399 10.4811 2.74699H10.4931C11.7201 2.69399 12.2261 2.66699 14.6261 2.66699H17.3601ZM17.3871 5.06699H14.6001C12.2931 5.06699 11.8001 5.09399 10.6001 5.14699C9.30709 5.19999 8.60009 5.41399 8.13309 5.59999C7.50609 5.83999 7.06609 6.13299 6.60009 6.59999C6.13409 7.06699 5.84009 7.50699 5.60009 8.13299C5.42709 8.59999 5.20009 9.30599 5.14709 10.613C5.09409 11.813 5.06709 12.293 5.06709 14.613V17.386C5.06709 19.706 5.09409 20.186 5.14709 21.386C5.20009 22.679 5.41409 23.386 5.60009 23.853C5.84009 24.48 6.13309 24.92 6.60009 25.386C7.06709 25.852 7.50709 26.146 8.13309 26.386C8.60009 26.573 9.30609 26.786 10.6131 26.839C11.9061 26.906 12.3731 26.919 15.2531 26.919H16.7331C19.6261 26.919 20.0801 26.906 21.3861 26.839C22.6791 26.786 23.3861 26.572 23.8531 26.386C24.4801 26.146 24.9201 25.853 25.3861 25.386C25.8521 24.919 26.1461 24.479 26.3861 23.853C26.5731 23.386 26.7861 22.68 26.8391 21.386C26.9061 20.079 26.9191 19.626 26.9191 16.733V15.266C26.9191 12.373 26.9061 11.906 26.8391 10.599C26.7861 9.30599 26.5721 8.59899 26.3861 8.13199C26.1601 7.53099 25.8191 7.01799 25.3871 6.59999L25.3861 6.59899C24.9661 6.16599 24.4541 5.82499 23.8811 5.60799L23.8531 5.59899C23.1211 5.32299 22.2751 5.15799 21.3911 5.14599H21.3861C20.3581 5.09399 19.1551 5.06399 17.9441 5.06399C17.7481 5.06399 17.5521 5.06499 17.3561 5.06599H17.3861L17.3871 5.06699ZM16.0001 9.14699C19.7811 9.14699 22.8471 12.212 22.8471 15.994C22.8471 19.776 19.7821 22.841 16.0001 22.841C12.2191 22.841 9.15309 19.776 9.15309 15.994C9.15309 12.212 12.2181 9.14699 16.0001 9.14699ZM16.0001 11.547C13.5441 11.547 11.5531 13.538 11.5531 15.994C11.5531 18.45 13.5441 20.441 16.0001 20.441C18.4561 20.441 20.4471 18.45 20.4471 15.994C20.4471 13.538 18.4561 11.547 16.0001 11.547ZM23.1071 7.27999C23.9911 7.27999 24.7071 7.99599 24.7071 8.87999C24.7071 9.76399 23.9911 10.48 23.1071 10.48C22.2231 10.48 21.5071 9.76399 21.5071 8.87999C21.5071 7.99599 22.2231 7.27999 23.1071 7.27999Z" fill="black"/>
</svg>
