<svg width="32" height="32" viewBox="0 0 32 32" fill="none" xmlns="http://www.w3.org/2000/svg">
<path d="M16.0001 2.66699C8.65711 2.69399 2.71411 8.65299 2.71411 16C2.71411 21.599 6.16611 26.393 11.0571 28.368L11.1461 28.4C11.0131 27.347 10.9191 25.733 11.1861 24.573L12.7461 17.946C12.7461 17.946 12.3461 17.146 12.3461 15.973C12.3461 14.12 13.4261 12.746 14.7731 12.746C15.9061 12.746 16.4661 13.599 16.4661 14.613C16.4661 15.76 15.7331 17.466 15.3461 19.053C15.0261 20.386 16.0131 21.466 17.3331 21.466C19.7061 21.466 21.5201 18.973 21.5201 15.373C21.5201 12.173 19.2271 9.95999 15.9471 9.95999C15.8711 9.95599 15.7831 9.95399 15.6941 9.95399C12.5051 9.95399 9.92111 12.539 9.92111 15.727C9.92111 15.729 9.92111 15.731 9.92111 15.733C9.92111 16.88 10.3611 18.106 10.9081 18.773C11.0151 18.906 11.0281 19.026 10.9881 19.16L10.6151 20.667C10.5621 20.907 10.4151 20.974 10.1751 20.854C8.49511 20.067 7.45511 17.654 7.45511 15.681C7.45511 11.481 10.5221 7.62799 16.2821 7.62799C20.8951 7.62799 24.5091 10.908 24.5091 15.321C24.5091 19.921 21.6021 23.614 17.5761 23.614C16.2431 23.614 14.9631 22.907 14.5361 22.081L13.6961 25.241C13.2651 26.578 12.7041 27.739 12.0081 28.804L12.0421 28.748C13.2121 29.12 14.5581 29.335 15.9531 29.335C23.3171 29.335 29.2861 23.365 29.2861 16.002C29.2861 8.65499 23.3441 2.69599 16.0041 2.66899H16.0011L16.0001 2.66699Z" fill="black"/>
</svg>
