<svg xmlns="http://www.w3.org/2000/svg" width="85" height="30" fill="none"><g filter="url(#a)"><path stroke="#499A18" stroke-linecap="round" stroke-linejoin="round" d="M6.527 20.947 14.92 3.663S7.576 7.01 6.002 10.912c-1.574 3.902-1.075 7.492 0 10.034"/><path stroke="#499A18" stroke-linejoin="round" d="M5.997 20.992S31.71-8.6 23.316 4.223c-8.395 12.822.855 2.41-3.819 9.846-4.673 7.436-13.5 6.925-13.5 6.925Z"/><path fill="#000" d="M30.926 9.841c1.355 0 2.358.225 3.008.673.662.437.992 1.216.992 2.336 0 1.12-.325 2.01-.976 2.671-.65.651-1.7.976-3.152.976h-1.344l-.048 3.473 1.248.111c0 .3-.09.62-.272.96h-3.6l-.048-.544c.448-.17.907-.298 1.376-.384-.064-4.16-.117-7.253-.16-9.28-.288-.053-.757-.18-1.408-.383l.08-.608h4.304Zm-.288 5.617c.918-.011 1.616-.24 2.096-.688.48-.46.72-1.062.72-1.809 0-.746-.234-1.264-.704-1.552-.469-.298-1.22-.448-2.256-.448-.192 0-.517.006-.976.016l-.048 4.496 1.168-.016Zm7.348-6.305c.33 0 .565.011.704.032 0 .374-.07.8-.209 1.28l-.144 9.488 1.344.128c0 .3-.09.62-.271.96h-3.68l-.048-.56c.49-.17.97-.298 1.44-.384l-.16-9.68c-.587-.031-1.056-.095-1.409-.191l.065-.833c.543-.16 1.333-.24 2.367-.24Zm8.99 6.656-.08 4.129c.459.032.918.106 1.376.224l-.032.56c-.17.085-.48.18-.928.287-.437.096-.87.145-1.296.145a2.862 2.862 0 0 1-.32-1.105c-1.216.8-2.07 1.2-2.56 1.2-.757 0-1.365-.202-1.824-.607-.458-.406-.688-.971-.688-1.697 0-1.674 1.024-2.538 3.072-2.591l1.808-.049-.016-.543c-.021-.737-.16-1.264-.416-1.585-.256-.33-.714-.495-1.376-.495-.277 0-.576.063-.896.191l-.384 1.6c-.053.011-.144.016-.272.016l-.656-.048c-.17-.458-.261-1.093-.272-1.904.203-.106.667-.266 1.392-.48.726-.223 1.19-.335 1.392-.335 1.088 0 1.856.24 2.304.72.448.48.672 1.269.672 2.367Zm-3.488 4.353c.31 0 1.024-.347 2.144-1.04l-.08-2c-.725.064-1.333.122-1.824.175-.49.054-.885.198-1.184.433-.298.223-.448.58-.448 1.072 0 .906.464 1.36 1.392 1.36Zm10.673-7.44c1.024 0 1.766.255 2.224.768.459.5.688 1.269.688 2.303 0 .3-.042 1.686-.128 4.16l1.344.128c0 .3-.09.62-.272.96h-3.68l-.048-.56c.49-.17.97-.298 1.44-.384-.064-2.794-.122-4.346-.176-4.656a2.956 2.956 0 0 0-.224-.832.95.95 0 0 0-.48-.495c-.213-.097-.496-.145-.848-.145-.704 0-1.386.171-2.048.513a681.246 681.246 0 0 0-.128 5.471l1.344.128c0 .3-.09.62-.272.96h-3.68l-.048-.56c.49-.17.97-.298 1.44-.384-.064-2.709-.117-4.714-.16-6.016-.586-.031-1.056-.095-1.408-.191l.064-.833c.576-.16 1.414-.24 2.512-.24.128.192.224.47.288.832.459-.245.918-.458 1.376-.64.47-.191.763-.287.88-.287Zm6.052 7.327-.128-6.031h-1.232l-.048-.56c.106-.075.416-.214.928-.417l1.312-2.048c.213.022.378.075.496.16l-.016 1.76c.8 0 1.456.054 1.968.16 0 .288-.091.603-.272.944h-1.728a760.67 760.67 0 0 0-.064 5.825 7.541 7.541 0 0 1 1.792.32l-.016.56c-.15.095-.534.207-1.152.335-.608.129-1.11.193-1.504.193-.054-.086-.123-.267-.208-.544-.086-.288-.128-.507-.128-.657Zm5.706-.032c.374.16.827.24 1.36.24.544 0 .97-.1 1.28-.304.31-.202.464-.48.464-.831 0-.352-.144-.646-.432-.88a4.524 4.524 0 0 0-1.056-.625 32.414 32.414 0 0 1-1.248-.576 3.296 3.296 0 0 1-1.056-.8 1.7 1.7 0 0 1-.432-1.152c0-.736.245-1.312.736-1.728.49-.426 1.168-.64 2.032-.64.875 0 1.696.198 2.464.592.01.107.016.395.016.864 0 .46-.048.854-.144 1.184-.256.086-.56.128-.912.128l-.528-1.632c-.234-.117-.554-.175-.96-.175-.394 0-.71.106-.944.32a.988.988 0 0 0-.352.784c0 .309.144.58.432.816.299.234.656.447 1.072.64.416.18.832.378 1.248.591.416.203.768.475 1.056.817.299.33.448.714.448 1.152 0 .768-.298 1.37-.896 1.808-.586.426-1.312.64-2.176.64-.47 0-.97-.075-1.504-.224-.533-.16-.981-.363-1.344-.608 0-.715.064-1.35.192-1.904.246-.043.576-.064.992-.064l.192 1.567Z"/></g><defs><filter id="a" width="73.963" height="29" x=".5" y=".5" color-interpolation-filters="sRGB" filterUnits="userSpaceOnUse"><feFlood flood-opacity="0" result="BackgroundImageFix"/><feColorMatrix in="SourceAlpha" result="hardAlpha" values="0 0 0 0 0 0 0 0 0 0 0 0 0 0 0 0 0 0 127 0"/><feOffset dy="4"/><feGaussianBlur stdDeviation="2"/><feComposite in2="hardAlpha" operator="out"/><feColorMatrix values="0 0 0 0 0 0 0 0 0 0 0 0 0 0 0 0 0 0 0.25 0"/><feBlend in2="BackgroundImageFix" result="effect1_dropShadow_1_144"/><feBlend in="SourceGraphic" in2="effect1_dropShadow_1_144" result="shape"/></filter></defs></svg>